<mxfile host="Electron" modified="2023-11-21T15:00:29.823Z" agent="Mozilla/5.0 (Macintosh; Intel Mac OS X 10_15_7) AppleWebKit/537.36 (KHTML, like Gecko) draw.io/22.0.3 Chrome/114.0.5735.289 Electron/25.8.4 Safari/537.36" etag="5vprjRuTf_D8dwmOaUS7" version="22.0.3" type="device">
  <diagram name="Seite-1" id="YW_XkhBOjjPQ7mssvhud">
    <mxGraphModel dx="954" dy="674" grid="1" gridSize="10" guides="1" tooltips="1" connect="1" arrows="1" fold="1" page="1" pageScale="1" pageWidth="850" pageHeight="1100" math="0" shadow="0">
      <root>
        <mxCell id="0" />
        <mxCell id="1" parent="0" />
        <mxCell id="Zs8ePAW7tOzAGc-rkhKx-1" value="" style="ellipse;html=1;shape=startState;fillColor=#000000;strokeColor=#ff0000;" vertex="1" parent="1">
          <mxGeometry x="120" y="40" width="30" height="30" as="geometry" />
        </mxCell>
        <mxCell id="Zs8ePAW7tOzAGc-rkhKx-2" value="" style="edgeStyle=orthogonalEdgeStyle;html=1;verticalAlign=bottom;endArrow=open;endSize=8;strokeColor=#ff0000;rounded=0;entryX=0.5;entryY=0;entryDx=0;entryDy=0;" edge="1" source="Zs8ePAW7tOzAGc-rkhKx-1" parent="1" target="Zs8ePAW7tOzAGc-rkhKx-3">
          <mxGeometry relative="1" as="geometry">
            <mxPoint x="135" y="130" as="targetPoint" />
          </mxGeometry>
        </mxCell>
        <mxCell id="Zs8ePAW7tOzAGc-rkhKx-3" value="set trainings mode of neural nets to true" style="rounded=1;whiteSpace=wrap;html=1;arcSize=40;fontColor=#000000;fillColor=#ffffc0;strokeColor=#ff0000;" vertex="1" parent="1">
          <mxGeometry x="75" y="140" width="120" height="40" as="geometry" />
        </mxCell>
        <mxCell id="Zs8ePAW7tOzAGc-rkhKx-4" value="" style="edgeStyle=orthogonalEdgeStyle;html=1;verticalAlign=bottom;endArrow=open;endSize=8;strokeColor=#ff0000;rounded=0;entryX=0.5;entryY=0;entryDx=0;entryDy=0;" edge="1" source="Zs8ePAW7tOzAGc-rkhKx-3" parent="1" target="Zs8ePAW7tOzAGc-rkhKx-5">
          <mxGeometry relative="1" as="geometry">
            <mxPoint x="135" y="240" as="targetPoint" />
          </mxGeometry>
        </mxCell>
        <mxCell id="Zs8ePAW7tOzAGc-rkhKx-5" value="update learning rule parameter like learning rate, step size,..." style="rounded=1;whiteSpace=wrap;html=1;arcSize=40;fontColor=#000000;fillColor=#ffffc0;strokeColor=#ff0000;" vertex="1" parent="1">
          <mxGeometry x="42.5" y="260" width="185" height="80" as="geometry" />
        </mxCell>
        <mxCell id="Zs8ePAW7tOzAGc-rkhKx-6" value="" style="edgeStyle=orthogonalEdgeStyle;html=1;verticalAlign=bottom;endArrow=open;endSize=8;strokeColor=#ff0000;rounded=0;" edge="1" source="Zs8ePAW7tOzAGc-rkhKx-5" parent="1" target="Zs8ePAW7tOzAGc-rkhKx-7">
          <mxGeometry relative="1" as="geometry">
            <mxPoint x="135" y="360" as="targetPoint" />
          </mxGeometry>
        </mxCell>
        <mxCell id="Zs8ePAW7tOzAGc-rkhKx-7" value="Set empty variables for logging" style="rounded=1;whiteSpace=wrap;html=1;arcSize=40;fontColor=#000000;fillColor=#ffffc0;strokeColor=#ff0000;" vertex="1" parent="1">
          <mxGeometry x="75" y="410" width="120" height="40" as="geometry" />
        </mxCell>
        <mxCell id="Zs8ePAW7tOzAGc-rkhKx-8" value="" style="edgeStyle=orthogonalEdgeStyle;html=1;verticalAlign=bottom;endArrow=open;endSize=8;strokeColor=#ff0000;rounded=0;" edge="1" source="Zs8ePAW7tOzAGc-rkhKx-7" parent="1" target="Zs8ePAW7tOzAGc-rkhKx-9">
          <mxGeometry relative="1" as="geometry">
            <mxPoint x="160" y="510" as="targetPoint" />
          </mxGeometry>
        </mxCell>
        <mxCell id="Zs8ePAW7tOzAGc-rkhKx-9" value="for epoch in epochs" style="shape=umlFrame;whiteSpace=wrap;html=1;pointerEvents=0;" vertex="1" parent="1">
          <mxGeometry x="30" y="520" width="480" height="600" as="geometry" />
        </mxCell>
        <mxCell id="Zs8ePAW7tOzAGc-rkhKx-10" value="" style="ellipse;html=1;shape=startState;fillColor=#000000;strokeColor=#ff0000;" vertex="1" parent="1">
          <mxGeometry x="110" y="530" width="30" height="30" as="geometry" />
        </mxCell>
        <mxCell id="Zs8ePAW7tOzAGc-rkhKx-11" value="" style="edgeStyle=orthogonalEdgeStyle;html=1;verticalAlign=bottom;endArrow=open;endSize=8;strokeColor=#ff0000;rounded=0;entryX=0;entryY=0.5;entryDx=0;entryDy=0;" edge="1" source="Zs8ePAW7tOzAGc-rkhKx-10" parent="1" target="Zs8ePAW7tOzAGc-rkhKx-13">
          <mxGeometry relative="1" as="geometry">
            <mxPoint x="125" y="620" as="targetPoint" />
          </mxGeometry>
        </mxCell>
        <mxCell id="Zs8ePAW7tOzAGc-rkhKx-12" value="for rollout data in batch" style="shape=umlFrame;whiteSpace=wrap;html=1;pointerEvents=0;width=98;height=30;" vertex="1" parent="1">
          <mxGeometry x="42.5" y="630" width="457.5" height="430" as="geometry" />
        </mxCell>
        <mxCell id="Zs8ePAW7tOzAGc-rkhKx-13" value="get batch from rollout data" style="rounded=1;whiteSpace=wrap;html=1;arcSize=40;fontColor=#000000;fillColor=#ffffc0;strokeColor=#ff0000;" vertex="1" parent="1">
          <mxGeometry x="180" y="525" width="120" height="40" as="geometry" />
        </mxCell>
        <mxCell id="Zs8ePAW7tOzAGc-rkhKx-14" value="" style="edgeStyle=orthogonalEdgeStyle;html=1;verticalAlign=bottom;endArrow=open;endSize=8;strokeColor=#ff0000;rounded=0;" edge="1" source="Zs8ePAW7tOzAGc-rkhKx-13" parent="1">
          <mxGeometry relative="1" as="geometry">
            <mxPoint x="240" y="630" as="targetPoint" />
          </mxGeometry>
        </mxCell>
        <mxCell id="Zs8ePAW7tOzAGc-rkhKx-15" value="Evaluate actions" style="rounded=1;whiteSpace=wrap;html=1;arcSize=40;fontColor=#000000;fillColor=#ffffc0;strokeColor=#ff0000;" vertex="1" parent="1">
          <mxGeometry x="170" y="640" width="120" height="40" as="geometry" />
        </mxCell>
        <mxCell id="Zs8ePAW7tOzAGc-rkhKx-16" value="" style="edgeStyle=orthogonalEdgeStyle;html=1;verticalAlign=bottom;endArrow=open;endSize=8;strokeColor=#ff0000;rounded=0;entryX=0;entryY=0.5;entryDx=0;entryDy=0;" edge="1" source="Zs8ePAW7tOzAGc-rkhKx-15" parent="1" target="Zs8ePAW7tOzAGc-rkhKx-17">
          <mxGeometry relative="1" as="geometry">
            <mxPoint x="230" y="740" as="targetPoint" />
            <Array as="points">
              <mxPoint x="310" y="660" />
              <mxPoint x="310" y="660" />
            </Array>
          </mxGeometry>
        </mxCell>
        <mxCell id="Zs8ePAW7tOzAGc-rkhKx-21" value="" style="edgeStyle=orthogonalEdgeStyle;rounded=0;orthogonalLoop=1;jettySize=auto;html=1;" edge="1" parent="1" source="Zs8ePAW7tOzAGc-rkhKx-17" target="Zs8ePAW7tOzAGc-rkhKx-19">
          <mxGeometry relative="1" as="geometry" />
        </mxCell>
        <mxCell id="Zs8ePAW7tOzAGc-rkhKx-17" value="calculate advantages" style="rounded=1;whiteSpace=wrap;html=1;arcSize=40;fontColor=#000000;fillColor=#ffffc0;strokeColor=#ff0000;" vertex="1" parent="1">
          <mxGeometry x="350" y="640" width="120" height="40" as="geometry" />
        </mxCell>
        <mxCell id="Zs8ePAW7tOzAGc-rkhKx-19" value="calculate rartios" style="rounded=1;whiteSpace=wrap;html=1;arcSize=40;fontColor=#000000;fillColor=#ffffc0;strokeColor=#ff0000;" vertex="1" parent="1">
          <mxGeometry x="350" y="710" width="120" height="40" as="geometry" />
        </mxCell>
        <mxCell id="Zs8ePAW7tOzAGc-rkhKx-20" value="" style="edgeStyle=orthogonalEdgeStyle;html=1;verticalAlign=bottom;endArrow=open;endSize=8;strokeColor=#ff0000;rounded=0;entryX=1;entryY=0.5;entryDx=0;entryDy=0;" edge="1" source="Zs8ePAW7tOzAGc-rkhKx-19" parent="1" target="Zs8ePAW7tOzAGc-rkhKx-22">
          <mxGeometry relative="1" as="geometry">
            <mxPoint x="410" y="810" as="targetPoint" />
          </mxGeometry>
        </mxCell>
        <mxCell id="Zs8ePAW7tOzAGc-rkhKx-22" value="calculate policy loss" style="rounded=1;whiteSpace=wrap;html=1;arcSize=40;fontColor=#000000;fillColor=#ffffc0;strokeColor=#ff0000;" vertex="1" parent="1">
          <mxGeometry x="180" y="710" width="120" height="40" as="geometry" />
        </mxCell>
        <mxCell id="Zs8ePAW7tOzAGc-rkhKx-23" value="" style="edgeStyle=orthogonalEdgeStyle;html=1;verticalAlign=bottom;endArrow=open;endSize=8;strokeColor=#ff0000;rounded=0;entryX=0.5;entryY=0;entryDx=0;entryDy=0;" edge="1" source="Zs8ePAW7tOzAGc-rkhKx-22" parent="1" target="Zs8ePAW7tOzAGc-rkhKx-24">
          <mxGeometry relative="1" as="geometry">
            <mxPoint x="240" y="810" as="targetPoint" />
          </mxGeometry>
        </mxCell>
        <mxCell id="Zs8ePAW7tOzAGc-rkhKx-24" value="calculate clip fraction" style="rounded=1;whiteSpace=wrap;html=1;arcSize=40;fontColor=#000000;fillColor=#ffffc0;strokeColor=#ff0000;" vertex="1" parent="1">
          <mxGeometry x="180" y="780" width="120" height="40" as="geometry" />
        </mxCell>
        <mxCell id="Zs8ePAW7tOzAGc-rkhKx-25" value="" style="edgeStyle=orthogonalEdgeStyle;html=1;verticalAlign=bottom;endArrow=open;endSize=8;strokeColor=#ff0000;rounded=0;entryX=0.5;entryY=0;entryDx=0;entryDy=0;" edge="1" source="Zs8ePAW7tOzAGc-rkhKx-24" parent="1" target="Zs8ePAW7tOzAGc-rkhKx-26">
          <mxGeometry relative="1" as="geometry">
            <mxPoint x="240" y="920" as="targetPoint" />
          </mxGeometry>
        </mxCell>
        <mxCell id="Zs8ePAW7tOzAGc-rkhKx-26" value="calculate value loss" style="rounded=1;whiteSpace=wrap;html=1;arcSize=40;fontColor=#000000;fillColor=#ffffc0;strokeColor=#ff0000;" vertex="1" parent="1">
          <mxGeometry x="180" y="860" width="120" height="40" as="geometry" />
        </mxCell>
        <mxCell id="Zs8ePAW7tOzAGc-rkhKx-27" value="" style="edgeStyle=orthogonalEdgeStyle;html=1;verticalAlign=bottom;endArrow=open;endSize=8;strokeColor=#ff0000;rounded=0;entryX=0;entryY=0.5;entryDx=0;entryDy=0;" edge="1" source="Zs8ePAW7tOzAGc-rkhKx-26" parent="1" target="Zs8ePAW7tOzAGc-rkhKx-28">
          <mxGeometry relative="1" as="geometry">
            <mxPoint x="220" y="1050" as="targetPoint" />
          </mxGeometry>
        </mxCell>
        <mxCell id="Zs8ePAW7tOzAGc-rkhKx-28" value="calculate entropy loss" style="rounded=1;whiteSpace=wrap;html=1;arcSize=40;fontColor=#000000;fillColor=#ffffc0;strokeColor=#ff0000;" vertex="1" parent="1">
          <mxGeometry x="365" y="780" width="120" height="40" as="geometry" />
        </mxCell>
        <mxCell id="Zs8ePAW7tOzAGc-rkhKx-29" value="" style="edgeStyle=orthogonalEdgeStyle;html=1;verticalAlign=bottom;endArrow=open;endSize=8;strokeColor=#ff0000;rounded=0;entryX=0.5;entryY=0;entryDx=0;entryDy=0;" edge="1" source="Zs8ePAW7tOzAGc-rkhKx-28" parent="1" target="Zs8ePAW7tOzAGc-rkhKx-30">
          <mxGeometry relative="1" as="geometry">
            <mxPoint x="425" y="880" as="targetPoint" />
          </mxGeometry>
        </mxCell>
        <mxCell id="Zs8ePAW7tOzAGc-rkhKx-30" value="get total loss" style="rounded=1;whiteSpace=wrap;html=1;arcSize=40;fontColor=#000000;fillColor=#ffffc0;strokeColor=#ff0000;" vertex="1" parent="1">
          <mxGeometry x="365" y="850" width="120" height="40" as="geometry" />
        </mxCell>
        <mxCell id="Zs8ePAW7tOzAGc-rkhKx-31" value="" style="edgeStyle=orthogonalEdgeStyle;html=1;verticalAlign=bottom;endArrow=open;endSize=8;strokeColor=#ff0000;rounded=0;" edge="1" source="Zs8ePAW7tOzAGc-rkhKx-30" parent="1" target="Zs8ePAW7tOzAGc-rkhKx-32">
          <mxGeometry relative="1" as="geometry">
            <mxPoint x="425" y="990" as="targetPoint" />
            <Array as="points">
              <mxPoint x="425" y="910" />
              <mxPoint x="120" y="910" />
            </Array>
          </mxGeometry>
        </mxCell>
        <mxCell id="Zs8ePAW7tOzAGc-rkhKx-32" value="set gradients of neural network to zero" style="rounded=1;whiteSpace=wrap;html=1;arcSize=40;fontColor=#000000;fillColor=#ffffc0;strokeColor=#ff0000;" vertex="1" parent="1">
          <mxGeometry x="60" y="940" width="120" height="40" as="geometry" />
        </mxCell>
        <mxCell id="Zs8ePAW7tOzAGc-rkhKx-33" value="" style="edgeStyle=orthogonalEdgeStyle;html=1;verticalAlign=bottom;endArrow=open;endSize=8;strokeColor=#ff0000;rounded=0;entryX=0;entryY=0.5;entryDx=0;entryDy=0;" edge="1" source="Zs8ePAW7tOzAGc-rkhKx-32" parent="1" target="Zs8ePAW7tOzAGc-rkhKx-34">
          <mxGeometry relative="1" as="geometry">
            <mxPoint x="290" y="1030" as="targetPoint" />
          </mxGeometry>
        </mxCell>
        <mxCell id="Zs8ePAW7tOzAGc-rkhKx-34" value="calculate gradiants using backward induction" style="rounded=1;whiteSpace=wrap;html=1;arcSize=40;fontColor=#000000;fillColor=#ffffc0;strokeColor=#ff0000;" vertex="1" parent="1">
          <mxGeometry x="220" y="940" width="120" height="40" as="geometry" />
        </mxCell>
        <mxCell id="Zs8ePAW7tOzAGc-rkhKx-35" value="" style="edgeStyle=orthogonalEdgeStyle;html=1;verticalAlign=bottom;endArrow=open;endSize=8;strokeColor=#ff0000;rounded=0;entryX=0;entryY=0.5;entryDx=0;entryDy=0;" edge="1" source="Zs8ePAW7tOzAGc-rkhKx-34" parent="1" target="Zs8ePAW7tOzAGc-rkhKx-36">
          <mxGeometry relative="1" as="geometry">
            <mxPoint x="400" y="1040" as="targetPoint" />
          </mxGeometry>
        </mxCell>
        <mxCell id="Zs8ePAW7tOzAGc-rkhKx-36" value="clip gradient norm" style="rounded=1;whiteSpace=wrap;html=1;arcSize=40;fontColor=#000000;fillColor=#ffffc0;strokeColor=#ff0000;" vertex="1" parent="1">
          <mxGeometry x="365" y="940" width="120" height="40" as="geometry" />
        </mxCell>
        <mxCell id="Zs8ePAW7tOzAGc-rkhKx-37" value="" style="edgeStyle=orthogonalEdgeStyle;html=1;verticalAlign=bottom;endArrow=open;endSize=8;strokeColor=#ff0000;rounded=0;entryX=0.5;entryY=0;entryDx=0;entryDy=0;" edge="1" source="Zs8ePAW7tOzAGc-rkhKx-36" parent="1" target="Zs8ePAW7tOzAGc-rkhKx-38">
          <mxGeometry relative="1" as="geometry">
            <mxPoint x="520" y="1040" as="targetPoint" />
          </mxGeometry>
        </mxCell>
        <mxCell id="Zs8ePAW7tOzAGc-rkhKx-38" value="update neural network parameter" style="rounded=1;whiteSpace=wrap;html=1;arcSize=40;fontColor=#000000;fillColor=#ffffc0;strokeColor=#ff0000;" vertex="1" parent="1">
          <mxGeometry x="365" y="1000" width="120" height="40" as="geometry" />
        </mxCell>
        <mxCell id="Zs8ePAW7tOzAGc-rkhKx-39" value="" style="edgeStyle=orthogonalEdgeStyle;html=1;verticalAlign=bottom;endArrow=open;endSize=8;strokeColor=#ff0000;rounded=0;entryX=1;entryY=0.5;entryDx=0;entryDy=0;" edge="1" source="Zs8ePAW7tOzAGc-rkhKx-38" parent="1" target="Zs8ePAW7tOzAGc-rkhKx-40">
          <mxGeometry relative="1" as="geometry">
            <mxPoint x="425" y="1100" as="targetPoint" />
          </mxGeometry>
        </mxCell>
        <mxCell id="Zs8ePAW7tOzAGc-rkhKx-40" value="" style="ellipse;html=1;shape=endState;fillColor=#000000;strokeColor=#ff0000;" vertex="1" parent="1">
          <mxGeometry x="220" y="1005" width="30" height="30" as="geometry" />
        </mxCell>
        <mxCell id="Zs8ePAW7tOzAGc-rkhKx-41" value="" style="ellipse;html=1;shape=endState;fillColor=#000000;strokeColor=#ff0000;" vertex="1" parent="1">
          <mxGeometry x="265" y="1080" width="30" height="30" as="geometry" />
        </mxCell>
        <mxCell id="Zs8ePAW7tOzAGc-rkhKx-42" value="" style="edgeStyle=orthogonalEdgeStyle;html=1;verticalAlign=bottom;endArrow=open;endSize=8;strokeColor=#ff0000;rounded=0;entryX=0.5;entryY=0;entryDx=0;entryDy=0;exitX=0.519;exitY=1;exitDx=0;exitDy=0;exitPerimeter=0;" edge="1" parent="1" source="Zs8ePAW7tOzAGc-rkhKx-12" target="Zs8ePAW7tOzAGc-rkhKx-41">
          <mxGeometry relative="1" as="geometry">
            <mxPoint x="260" y="1030" as="targetPoint" />
            <mxPoint x="375" y="1030" as="sourcePoint" />
          </mxGeometry>
        </mxCell>
        <mxCell id="Zs8ePAW7tOzAGc-rkhKx-43" value="logging training parameter" style="rounded=1;whiteSpace=wrap;html=1;arcSize=40;fontColor=#000000;fillColor=#ffffc0;strokeColor=#ff0000;" vertex="1" parent="1">
          <mxGeometry x="211.25" y="1160" width="120" height="40" as="geometry" />
        </mxCell>
        <mxCell id="Zs8ePAW7tOzAGc-rkhKx-44" value="" style="edgeStyle=orthogonalEdgeStyle;html=1;verticalAlign=bottom;endArrow=open;endSize=8;strokeColor=#ff0000;rounded=0;entryX=0;entryY=0;entryDx=0;entryDy=0;" edge="1" source="Zs8ePAW7tOzAGc-rkhKx-43" parent="1" target="Zs8ePAW7tOzAGc-rkhKx-46">
          <mxGeometry relative="1" as="geometry">
            <mxPoint x="271" y="1240" as="targetPoint" />
          </mxGeometry>
        </mxCell>
        <mxCell id="Zs8ePAW7tOzAGc-rkhKx-45" value="" style="edgeStyle=orthogonalEdgeStyle;html=1;verticalAlign=bottom;endArrow=open;endSize=8;strokeColor=#ff0000;rounded=0;entryX=0.5;entryY=0;entryDx=0;entryDy=0;exitX=0.506;exitY=1.007;exitDx=0;exitDy=0;exitPerimeter=0;" edge="1" parent="1" source="Zs8ePAW7tOzAGc-rkhKx-9" target="Zs8ePAW7tOzAGc-rkhKx-43">
          <mxGeometry relative="1" as="geometry">
            <mxPoint x="370" y="1100" as="targetPoint" />
            <mxPoint x="370" y="1080" as="sourcePoint" />
          </mxGeometry>
        </mxCell>
        <mxCell id="Zs8ePAW7tOzAGc-rkhKx-46" value="" style="ellipse;html=1;shape=endState;fillColor=#000000;strokeColor=#ff0000;" vertex="1" parent="1">
          <mxGeometry x="260" y="1250" width="30" height="30" as="geometry" />
        </mxCell>
      </root>
    </mxGraphModel>
  </diagram>
</mxfile>
